PathFileType	4	(X/Y/Z)	./resultDataOpenSim/trcMotMarkerGrf/sub09/qtm-02-05.trc
DataRate	CameraRate	NumFrames	NumMarkers	Units	OrigDataRate	OrigDataStartFrame	OrigNumFrames
250.000000	250.000000	8	24	m	250.000000	177	470
Frame#	Time	L.Toe.Tip			R.Toe.Tip			L.Ankle.Lat			R.Ankle.Lat			L.Ankle.Med			R.Ankle.Med			L.Heel			R.Heel			L.Knee.Lat			R.Knee.Lat			L.Knee.Med			R.Knee.Med			L.Thigh.Upper			R.Thigh.Upper			L.ASIS			R.ASIS			V.Sacral			L.Acromium			R.Acromium			C7			L.Elbow			R.Elbow			L.Wrist.Lat			R.Wrist.Lat
		X1	Y1	Z1	X2	Y2	Z2	X3	Y3	Z3	X4	Y4	Z4	X5	Y5	Z5	X6	Y6	Z6	X7	Y7	Z7	X8	Y8	Z8	X9	Y9	Z9	X10	Y10	Z10	X11	Y11	Z11	X12	Y12	Z12	X13	Y13	Z13	X14	Y14	Z14	X15	Y15	Z15	X16	Y16	Z16	X17	Y17	Z17	X18	Y18	Z18	X19	Y19	Z19	X20	Y20	Z20	X21	Y21	Z21	X22	Y22	Z22	X23	Y23	Z23	X24	Y24	Z24

177	0.704	0.11897196	0.016174401	0.025307878	-0.65806267	0.046604682	0.1134393	-0.029597239	0.048401213	-0.02082518	-0.74598792	0.15991892	0.16258427	-0.01337162	0.069628564	0.074748751	-0.70616491	0.17725912	0.073655736	-0.10143312	0.011752179	0.022838193	-0.80356663	0.19163015	0.10782734	-0.036934184	0.46435751	-0.070151802	-0.37410303	0.43432281	0.22150569	-0.0383462	0.46829016	0.054519005	-0.37888526	0.41613757	0.092018946	-0.25185607	0.82893918	-0.12121978	-0.29323984	0.81709833	0.25283095	-0.18818501	0.91589908	-0.055256945	-0.18393543	0.89897387	0.18696942	-0.35691868	0.95818137	0.066478389	-0.21119876	1.3553777	-0.10862715	-0.20442668	1.3682977	0.22278348	-0.27155827	1.4138973	0.059418383	-0.38492838	1.0364777	-0.15413593	-0.32031671	1.0190216	0.31147106	-0.32902102	0.79136309	-0.22785251	-0.14004419	0.81137545	0.32563147
178	0.708	0.11909433	0.015892171	0.025765034	-0.6556262	0.048151527	0.11415378	-0.029222133	0.048161211	-0.020502974	-0.73901596	0.1656122	0.16360355	-0.013251051	0.069216264	0.075201507	-0.69818606	0.18166525	0.075002959	-0.10149829	0.011764904	0.022746789	-0.79504741	0.19889621	0.10867169	-0.031569583	0.46362528	-0.070327479	-0.36285471	0.43280496	0.22170013	-0.032853472	0.46761644	0.054735136	-0.36645089	0.41370162	0.092623448	-0.24499598	0.82948751	-0.12169997	-0.28556142	0.81661998	0.25226208	-0.18140043	0.91685572	-0.056063748	-0.17710628	0.89909476	0.18611274	-0.34994098	0.95854117	0.066257582	-0.20418057	1.3557415	-0.10873335	-0.19682966	1.368721	0.22255473	-0.26446806	1.4140553	0.059336063	-0.37759378	1.0366061	-0.15419709	-0.31390473	1.0201306	0.31136183	-0.32037345	0.79159946	-0.22794309	-0.13511625	0.81098317	0.32508305
179	0.712	0.11914145	0.015682465	0.026211557	-0.65284221	0.049819871	0.11502558	-0.028938645	0.04791403	-0.02020061	-0.73156154	0.17132446	0.1645441	-0.013233012	0.068826277	0.075641549	-0.68956454	0.18576233	0.076292739	-0.10158682	0.011735385	0.022722528	-0.78588285	0.20604769	0.10919027	-0.026486313	0.46272894	-0.070453878	-0.35151344	0.4314848	0.22214876	-0.027856611	0.46662629	0.054969824	-0.35394305	0.41142237	0.09315543	-0.23820509	0.82989792	-0.1220669	-0.27783461	0.81628512	0.25162084	-0.1746495	0.91768768	-0.056785526	-0.17042861	0.89932593	0.18526308	-0.34300243	0.95900901	0.065853377	-0.19715295	1.3561701	-0.1088532	-0.18929661	1.369166	0.2223477	-0.25741205	1.4143176	0.059295456	-0.37030249	1.0367735	-0.1542786	-0.30750759	1.0212277	0.31134452	-0.31156172	0.7918991	-0.22803533	-0.13017793	0.81063337	0.32452166
180	0.716	0.11917132	0.01552445	0.026584	-0.64967712	0.051588736	0.11600296	-0.028691883	0.047682925	-0.019931394	-0.72349021	0.17710866	0.16544998	-0.013223509	0.068482392	0.076047804	-0.68038394	0.18956319	0.077516385	-0.10165427	0.011695784	0.022767805	-0.77616885	0.21310339	0.10955764	-0.021612925	0.46173973	-0.070487639	-0.34029371	0.43048477	0.22288983	-0.023363578	0.46545053	0.055115351	-0.34139841	0.40934777	0.09364102	-0.23154205	0.83019438	-0.12235361	-0.27007212	0.8160994	0.25091674	-0.16796635	0.91839543	-0.057403742	-0.16392882	0.89966727	0.18443849	-0.33617279	0.95961531	0.065436932	-0.19017068	1.356653	-0.1089686	-0.18186487	1.3696355	0.22216135	-0.25042351	1.4147014	0.059285401	-0.36305006	1.0369726	-0.15439374	-0.30107928	1.0222914	0.31139872	-0.30261715	0.79225033	-0.22811256	-0.12524589	0.81032475	0.3239543
181	0.72	0.1192097	0.015408392	0.026857289	-0.64609211	0.053436245	0.11701652	-0.028447541	0.047472406	-0.019721019	-0.71470207	0.18299374	0.16633787	-0.013165993	0.068195483	0.076385533	-0.67079604	0.19317371	0.078631973	-0.10168999	0.011672093	0.022838737	-0.76599272	0.22004726	0.10993332	-0.016894923	0.46074134	-0.070445827	-0.32921562	0.42978777	0.22378414	-0.019385754	0.46421805	0.055091149	-0.32879936	0.40752606	0.094058236	-0.22492001	0.83042394	-0.12259291	-0.26237413	0.81606485	0.25019499	-0.16137046	0.91898942	-0.057913359	-0.15756803	0.90012145	0.18369288	-0.32945613	0.96036297	0.065142212	-0.18326694	1.3571868	-0.10906348	-0.17457443	1.3701328	0.22198791	-0.24353349	1.4152231	0.059291134	-0.35582466	1.0372037	-0.15456086	-0.2946394	1.0233247	0.31152705	-0.2936051	0.79264984	-0.22814677	-0.12032192	0.81005881	0.32338694
182	0.724	0.11925138	0.015327019	0.02704038	-0.64206424	0.055354075	0.11800975	-0.028194534	0.047269895	-0.019587736	-0.705258	0.18886691	0.16721191	-0.013049186	0.067962911	0.076627151	-0.66092261	0.1966967	0.079626308	-0.1017067	0.011667475	0.02288876	-0.75543729	0.22684605	0.11048104	-0.012289538	0.45983336	-0.070387553	-0.31807632	0.42924259	0.22461038	-0.015828779	0.46302604	0.054910584	-0.31606142	0.40599914	0.094335782	-0.21823836	0.8306384	-0.12281851	-0.25486897	0.81618674	0.24951216	-0.15487065	0.91948607	-0.05832722	-0.15126578	0.90069999	0.18309051	-0.32279919	0.96124764	0.064996997	-0.17641813	1.3577796	-0.10914816	-0.16744752	1.3706654	0.2218188	-0.23674493	1.415892	0.059300015	-0.3486128	1.0374745	-0.15479041	-0.28821406	1.0243405	0.31173027	-0.28456165	0.79310469	-0.22812687	-0.11541076	0.80983672	0.32282395
183	0.728	0.11927914	0.015270511	0.02715226	-0.6375621	0.05736694	0.11896633	-0.027942374	0.047062869	-0.019531787	-0.69533649	0.19451604	0.16808739	-0.012890534	0.067776374	0.076766093	-0.65082395	0.20019472	0.080538145	-0.1017233	0.011671387	0.022895552	-0.74458352	0.23347664	0.11137411	-0.0077830481	0.45908442	-0.07036492	-0.30643299	0.42854357	0.22505039	-0.012530722	0.4619298	0.054664122	-0.30308358	0.40479056	0.094422115	-0.21145461	0.83088946	-0.1230566	-0.24766656	0.81647243	0.24891355	-0.14846353	0.91991131	-0.058664224	-0.14501639	0.90140617	0.1826443	-0.31616462	0.9622657	0.064846592	-0.16958639	1.3584439	-0.10924357	-0.16046624	1.371244	0.22165708	-0.23002002	1.416699	0.059299875	-0.34141699	1.0377982	-0.15507302	-0.28181941	1.0253565	0.3119993	-0.27547512	0.79362793	-0.22806183	-0.11051937	0.80966042	0.32226876
184	0.732	0.11928149	0.015228548	0.027211074	-0.6325053	0.05953882	0.11992261	-0.027710579	0.046854636	-0.019536375	-0.68507703	0.19981071	0.16897841	-0.012714192	0.067629038	0.076816595	-0.64051174	0.20369137	0.081422988	-0.1017519	0.011672589	0.022862445	-0.73350251	0.23992673	0.11265445	-0.0034059188	0.45850158	-0.070403529	-0.29386887	0.42741693	0.22484233	-0.0094519601	0.46094487	0.054408365	-0.28995401	0.40390191	0.094386356	-0.20459047	0.83122706	-0.12330869	-0.24081478	0.81692568	0.24841853	-0.14212875	0.92030367	-0.058935089	-0.13889803	0.90222693	0.18230822	-0.30957038	0.96339819	0.064488989	-0.16275708	1.3591852	-0.1093557	-0.15358855	1.3718812	0.22151902	-0.22327928	1.4176163	0.059261444	-0.3342584	1.0381892	-0.15538706	-0.27546087	1.0263887	0.31231584	-0.26631453	0.79423219	-0.22796001	-0.10565597	0.80953489	0.32172386
